<svg width="24" height="25" viewBox="0 0 24 25" fill="none" xmlns="http://www.w3.org/2000/svg">
<g clip-path="url(#clip0_36_3701)">
<path d="M23.5078 13.0245C23.5078 12.0412 23.4295 11.3237 23.2598 10.5796H12.2295V15.0176H18.7041C18.5736 16.1205 17.8687 17.7814 16.3022 18.8975L16.2802 19.0461L19.7678 21.7963L20.0095 21.8208C22.2285 19.7347 23.5078 16.6652 23.5078 13.0245Z" fill="#4285F4"/>
<path d="M12.2296 24.7171C15.4016 24.7171 18.0645 23.6541 20.0095 21.8205L16.3023 18.8971C15.3102 19.6014 13.9787 20.093 12.2296 20.093C9.1228 20.093 6.48598 18.0069 5.54603 15.1235L5.40825 15.1354L1.7818 17.9923L1.73438 18.1265C3.6663 22.033 7.63462 24.7171 12.2296 24.7171Z" fill="#34A853"/>
<path d="M5.54597 15.1236C5.29795 14.3795 5.15442 13.5822 5.15442 12.7584C5.15442 11.9345 5.29795 11.1373 5.53292 10.3932L5.52635 10.2347L1.85446 7.33203L1.73432 7.3902C0.938084 9.0113 0.481201 10.8317 0.481201 12.7584C0.481201 14.6851 0.938084 16.5054 1.73432 18.1265L5.54597 15.1236Z" fill="#FBBC05"/>
<path d="M12.2295 5.42383C14.4356 5.42383 15.9237 6.39382 16.7722 7.20441L20.0878 3.90909C18.0515 1.9824 15.4015 0.799805 12.2295 0.799805C7.63462 0.799805 3.6663 3.48387 1.73438 7.39037L5.53297 10.3934C6.48597 7.51 9.12279 5.42383 12.2295 5.42383Z" fill="#EB4335"/>
</g>
<defs>
<clipPath id="clip0_36_3701">
<rect width="23.04" height="24" fill="white" transform="translate(0.47998 0.799805)"/>
</clipPath>
</defs>
</svg>
